<svg xmlns="http://www.w3.org/2000/svg" viewBox="0 0 135.3 187.5"><g fill="#FFF"><circle cx="74.5" cy="120.2" r="5.3"/><path d="M104.1 97.3H87.4l37.7-37.7c13.6-13.6 13.6-35.7 0-49.3-13.6-13.6-35.7-13.6-49.3 0-1.9 1.9-1.9 5 0 7s5 1.9 7 0c9.8-9.8 25.7-9.8 35.4 0 9.8 9.8 9.8 25.7 0 35.4l-7.2 7.2c-1.4-7.9-5.2-15.1-11-20.9-1.9-1.9-5-1.9-7 0-1.9 1.9-1.9 5 0 7 5.6 5.6 8.7 13.1 8.7 21.1v2.1L73.5 97.3h-5.7c-1.8 0-3.6.2-5.4.5L33.5 68.9v-2.1c0-8 3.1-15.4 8.7-21.1 1.9-1.9 1.9-5 0-7-1.9-1.9-5-1.9-7 0-5.8 5.8-9.5 13-11 20.9L17 52.4C7.2 42.6 7.2 26.7 17 17c9.8-9.8 25.7-9.8 35.4 0 1.9 1.9 5 1.9 7 0s1.9-5 0-7C45.8-3.6 23.7-3.6 10.1 10c-13.6 13.6-13.6 35.7 0 49.3l42 42c-1.3.8-2.6 1.6-3.9 2.6-5.9 4.5-10.1 10.4-11.9 16.8L19.2 181c-.7 2.6.8 5.3 3.4 6.1.4.1.9.2 1.3.2 2.1 0 4.1-1.4 4.7-3.6l17.1-60.3c2.5-9 12.6-16.5 21.9-16.5H104c8.8 0 16 7.2 16 16v.9c0 8.8-7.2 16-16 16H82.8c-2.7 0-4.9 2.2-4.9 4.9v37.7c0 2.7 2.2 4.9 4.9 4.9s4.9-2.2 4.9-4.9v-32.8h16.5c14.2 0 25.8-11.6 25.8-25.8v-.9c0-14.1-11.6-25.6-25.9-25.6z"/></g></svg>