<svg xmlns="http://www.w3.org/2000/svg" viewBox="0 0 129.8 189.5"><g fill="#0F0"><circle cx="74.4" cy="122.3" r="5.3"/><path d="M104 99.3H70.5c4.3-6.6 11.6-10.6 19.5-10.6h17.1c2.3 0 4.2-1.5 4.8-3.7l17.7-72.1c.6-2.3-.6-4.7-2.7-5.6-.3-.1-8.1-3.6-19.7-5.7-15.5-2.8-30.7-1.8-44 3-2.1.7-3.4 2.8-3.3 4.9v60.7c0 2.7 2.2 4.9 4.9 4.9s4.9-2.2 4.9-4.9V12.7c13.5-4 26.5-3.1 35.4-1.5 5.9 1 10.8 2.5 13.9 3.6l-15.8 64.1H90c-9.8 0-18.9 4.2-25.1 11.5-6.2-7.3-15.4-11.5-25.1-11.5H26.5L10.8 15.2c7.1-1.8 22-4.8 37.2-3.5 2.7.2 5.1-1.8 5.3-4.5.2-2.7-1.8-5.1-4.5-5.3-23-2-44.5 4.9-45.4 5.2C1 7.8-.5 10.4.1 12.9L17.9 85c.5 2.2 2.5 3.7 4.8 3.7h17.1c7.9 0 15.2 4 19.5 10.6.2.4.5.7.8 1-4.2 1.1-8.3 3.1-12 5.9-5.9 4.5-10.1 10.4-11.9 16.8l-17.1 60.3c-.7 2.6.8 5.3 3.4 6.1.4.1.9.2 1.3.2 2.1 0 4.1-1.4 4.7-3.6l17.1-60.3c2.5-9 12.6-16.5 21.9-16.5H104c8.8 0 16 7.2 16 16v.9c0 8.8-7.2 16-16 16H82.6c-2.7 0-4.9 2.2-4.9 4.9v37.7c0 2.7 2.2 4.9 4.9 4.9s4.9-2.2 4.9-4.9v-32.8H104c14.2 0 25.8-11.6 25.8-25.8v-.9c0-14.3-11.6-25.9-25.8-25.9z"/></g></svg>