<svg xmlns="http://www.w3.org/2000/svg" viewBox="0 0 617.8 140.9"><g class="logo-fill" fill="#FFF"><path d="M429.2 20.9h-13.4v-5.2h11.7v-4.8h-11.7v-5H429V1.1h-18.5v24.6h18.7M441 26c2.8 0 4.6-1.3 5.9-3.1v2.7h5.4V0h-5.4v9.3c-1.3-1.5-3-2.8-5.9-2.8-4.5 0-8.6 3.4-8.6 9.8 0 6.3 4.2 9.7 8.6 9.7zm1.3-15c2.5 0 4.6 2.1 4.6 5.2 0 3.2-2.1 5.3-4.6 5.3-2.5 0-4.6-2.1-4.6-5.2 0-3.2 2.1-5.3 4.6-5.3zM463.3 26c2.7 0 4.3-1.4 5.5-3v2.7h5.4V6.8h-5.4v10.5c0 2.5-1.3 3.8-3.3 3.8-2 0-3.2-1.3-3.2-3.8V6.8h-5.4V19c0 4.4 2.3 7 6.4 7zM487.8 26.1c3.8 0 5.9-1.4 7.7-3.4l-3.1-3.2c-1.3 1.2-2.5 2-4.3 2-2.9 0-4.8-2.3-4.8-5.2 0-2.9 1.9-5.2 4.6-5.2 2.1 0 3.2.8 4.4 1.9l3.1-3.2c-1.8-2-3.9-3.3-7.5-3.3-5.8 0-9.9 4.4-9.9 9.8-.1 5.5 4.1 9.8 9.8 9.8zM505.3 14.2c-4.5 0-7.6 1.9-7.6 6 0 3.8 2.9 5.8 6.5 5.8 2.6 0 4.4-1 5.7-2.4v2h5.2V14.7c0-2.5-.6-4.6-2-6-1.3-1.3-3.5-2.1-6.4-2.1-3.2 0-5.2.6-7.3 1.5l1.3 4.1c1.7-.6 3.2-1 5.2-1 2.7 0 4 1.2 4 3.5v.3c-1.3-.5-2.7-.8-4.6-.8zm4.7 3.9v1c0 1.9-1.7 3.3-4.2 3.3-1.7 0-2.9-.8-2.9-2.3 0-1.8 1.4-2.7 3.7-2.7 1.3 0 2.5.3 3.4.7zM520.3 20.3c0 4.4 2.2 5.7 5.5 5.7 1.8 0 3.1-.4 4.2-1.1v-4.3c-.8.4-1.7.7-2.6.7-1.2 0-1.7-.6-1.7-1.8v-8.1h4.4V6.8h-4.4V2h-5.4v4.8H518v4.6h2.3v8.9zM534.1 0h5.6v4.8h-5.6zM534.2 6.8h5.4v18.9h-5.4zM553.6 6.5c-5.9 0-10.2 4.4-10.2 9.8 0 5.5 4.3 9.8 10.2 9.8 5.9 0 10.2-4.4 10.2-9.8 0-5.5-4.3-9.8-10.2-9.8zm0 15c-3 0-5-2.4-5-5.2 0-2.9 1.8-5.2 4.9-5.2 3 0 5 2.4 5 5.2 0 2.8-1.8 5.2-4.9 5.2zM578.4 6.5c-2.7 0-4.3 1.4-5.5 3V6.8h-5.4v18.9h5.4V15.2c0-2.5 1.3-3.8 3.3-3.8 2 0 3.2 1.3 3.2 3.8v10.5h5.4V13.5c.1-4.3-2.3-7-6.4-7zM611.4 10.9V4.5h-5v6.4h-6.3v4.8h6.3v6.4h5v-6.4h6.4v-4.8M428.2 75.5h-12.3V55.8h-5.4v24.6h17.7M450.9 71.1c0-5.5-4.3-9.8-10.2-9.8-5.9 0-10.2 4.4-10.2 9.8 0 5.5 4.3 9.8 10.2 9.8 5.8 0 10.2-4.4 10.2-9.8zm-15.1 0c0-2.9 1.8-5.2 4.9-5.2 3 0 5 2.4 5 5.2 0 2.9-1.8 5.2-4.9 5.2-3 0-5-2.5-5-5.2zM461.7 74.2l-4.2-12.6h-5.7l7.5 19h4.8l7.5-19H466M482.5 80.9c3.4 0 5.9-1.3 7.7-3.5l-3.1-2.7c-1.5 1.4-2.8 1.9-4.6 1.9-2.4 0-4.1-1.3-4.6-3.7H491c0-.5.1-1 .1-1.4 0-5.4-2.9-10.2-9.2-10.2-5.5 0-9.3 4.4-9.3 9.8 0 5.8 4.2 9.8 9.9 9.8zm-.6-15.4c2.3 0 3.7 1.6 4 4h-8.1c.5-2.4 1.9-4 4.1-4zM506.2 70.2h16.7v4.9h-16.7zM506.2 61.1h16.7V66h-16.7zM432.4 110.6h-6.5l-10 10.7v-10.7h-5.4v24.6h5.4v-7.5l2.8-3 7.7 10.5h6.5L422.4 121M446.5 116c-2.7 0-4.3 1.4-5.5 3v-2.7h-5.4v18.9h5.4v-10.5c0-2.5 1.3-3.8 3.3-3.8 2 0 3.2 1.3 3.2 3.8v10.5h5.4V123c0-4.3-2.3-7-6.4-7zM466.8 116c-5.9 0-10.2 4.4-10.2 9.8 0 5.5 4.3 9.8 10.2 9.8 5.9 0 10.2-4.4 10.2-9.8 0-5.5-4.3-9.8-10.2-9.8zm0 15c-3 0-5-2.4-5-5.2 0-2.9 1.8-5.2 4.9-5.2 3 0 5 2.4 5 5.2 0 2.9-1.8 5.2-4.9 5.2zM498.6 127.8l-3.6-11.5h-4.6l-3.6 11.5-3-11.5h-5.4l5.8 19h4.8l3.7-11.5 3.6 11.5h4.8l5.9-19h-5.3M510 109.5h5.4v25.7H510zM528.6 116c-5.5 0-9.3 4.4-9.3 9.8 0 5.8 4.2 9.8 9.9 9.8 3.4 0 5.9-1.3 7.7-3.5l-3.1-2.7c-1.5 1.4-2.8 1.9-4.6 1.9-2.4 0-4.1-1.3-4.6-3.7h13.1c0-.5.1-1 .1-1.4 0-5.3-2.9-10.2-9.2-10.2zm-4.1 8.3c.4-2.4 1.9-4 4.1-4 2.3 0 3.7 1.6 4 4h-8.1zM555.2 118.8c-1.3-1.5-3-2.8-5.9-2.8-4.5 0-8.6 3.5-8.6 9.8 0 6.4 4.2 9.8 8.6 9.8 2.8 0 4.6-1.3 5.9-3.1v2.7h5.4v-25.7h-5.4v9.3zm-4.5 12.2c-2.5 0-4.6-2.1-4.6-5.2 0-3.2 2.1-5.3 4.6-5.3 2.5 0 4.6 2.1 4.6 5.2 0 3.2-2.1 5.3-4.6 5.3zM578.9 118.8c-1.4-1.6-3.2-2.8-6.1-2.8-4.3 0-8.4 3.2-8.4 8.8 0 5.7 4 8.9 8.4 8.9 2.9 0 4.6-1.2 6.2-3.1v.9c0 3.4-1.7 5.1-5.4 5.1-2.5 0-4.4-.6-6.4-1.7l-1.8 4c2.4 1.3 5.3 2 8.3 2 3.7 0 6.4-.8 8.1-2.5 1.6-1.6 2.4-4 2.4-7.4v-14.6h-5.4v2.4zm-4.5 10.4c-2.6 0-4.6-1.8-4.6-4.4 0-2.6 2-4.4 4.6-4.4 2.6 0 4.6 1.8 4.6 4.4 0 2.6-2 4.4-4.6 4.4zM597.4 116c-5.5 0-9.3 4.4-9.3 9.8 0 5.8 4.2 9.8 9.9 9.8 3.4 0 5.9-1.3 7.7-3.5l-3.1-2.7c-1.5 1.4-2.8 1.9-4.6 1.9-2.4 0-4.1-1.3-4.6-3.7h13.1c0-.5.1-1 .1-1.4 0-5.3-2.9-10.2-9.2-10.2zm-4 8.3c.4-2.4 1.9-4 4.1-4 2.3 0 3.7 1.6 4 4h-8.1zM0 1.2h37.1v133.5H0z"/><circle cx="63.8" cy="16.5" r="15.3"/><circle cx="334" cy="16.5" r="15.3"/><circle cx="334" cy="119.4" r="15.3"/><circle cx="63.8" cy="68" r="15.3"/><circle cx="306.8" cy="68" r="15.3"/><circle cx="63.8" cy="119.4" r="15.3"/><circle cx="188.4" cy="119.4" r="15.3"/><path d="M124.6 1.2h37.1v133.5h-37.1zM243 1.2h37.1v133.5H243z"/></g></svg>
